<?xml version="1.0" encoding="utf-8" ?>
<svg baseProfile="full" height="955px" version="1.1" viewBox="0 0 966 955" width="966px" xmlns="http://www.w3.org/2000/svg" xmlns:ev="http://www.w3.org/2001/xml-events" xmlns:xlink="http://www.w3.org/1999/xlink"><defs /><polygon fill="#888888" points="791,729 800,729 801,727 803,727 804,728 818,728 823,733 823,741 833,741 836,743 836,747 839,749 839,772 838,773 836,773 836,775 829,779 829,781 828,782 822,782 819,786 817,786 816,785 816,783 807,783 801,777 800,767 792,767 788,763 785,763 784,762 784,758 786,755 786,743 788,741 788,739 789,738 789,732" stroke="black" stroke-width="0.5" /><polygon fill="#888888" points="782,662 783,663 783,667 785,668 785,671 790,676 793,677 794,679 796,680 796,682 798,684 798,687 796,691 784,701 782,707 780,707 778,710 771,710 771,718 764,724 747,724 745,722 742,722 735,717 735,711 733,709 733,691 738,686 744,686 744,672 745,671 754,670 765,659 766,656 771,657 773,659 775,659 776,661" stroke="black" stroke-width="0.5" /><polygon fill="#888888" points="640,587 648,588 649,598 657,598 657,589 659,587 670,587 673,591 673,597 695,598 698,601 698,673 695,676 627,676 624,673 624,642 617,642 616,637 624,636 624,600 626,598 638,598 638,589" stroke="black" stroke-width="0.5" /><polygon fill="#888888" points="536,788 537,789 537,807 539,808 539,812 537,815 537,827 538,828 538,830 536,833 532,835 530,835 529,834 514,834 514,837 513,838 511,838 510,837 510,835 508,833 508,830 506,829 506,824 508,823 508,815 504,815 503,814 503,807 504,806 506,806 507,808 516,808 516,806 517,805 520,805 521,804 524,804 525,806 533,806 533,789 534,788" stroke="black" stroke-width="0.5" /><polygon fill="#888888" points="501,743 503,741 505,741 506,742 519,742 520,741 522,741 523,742 540,742 541,741 543,741 544,742 544,767 543,768 541,768 538,765 527,765 526,764 507,764 507,768 506,769 504,769 503,767 501,766 501,763 499,763 498,762 498,758 499,757 501,757" stroke="black" stroke-width="0.5" /><polygon fill="#888888" points="386,561 413,561 416,563 416,566 418,567 418,574 420,576 420,591 421,592 421,602 418,605 418,615 420,616 420,636 423,637 423,641 422,642 415,643 414,645 388,645 385,642 380,642 379,641 379,613 380,612 379,589 380,588 380,579 381,578 381,566" stroke="black" stroke-width="0.5" /><polygon fill="#888888" points="472,418 493,418 494,419 496,419 497,420 497,430 496,431 495,431 495,432 493,434 492,434 491,435 491,446 492,447 492,454 487,459 486,459 485,460 477,460 472,456 472,454 471,453 471,447 472,446 472,444 474,442 474,434 473,434 472,433 472,432 471,432 469,430 469,429 468,428 468,425 470,422 470,420" stroke="black" stroke-width="0.5" /><polygon fill="#888888" points="590,315 596,317 615,318 616,321 621,322 627,325 632,329 633,332 641,337 646,345 649,354 649,359 651,360 651,363 654,366 654,370 641,383 637,383 635,381 629,381 628,379 623,379 621,377 616,376 615,373 610,370 610,368 605,366 605,362 600,361 596,357 594,353 594,348 592,344 592,341 585,332 586,328 589,326 589,316" stroke="black" stroke-width="0.5" /><polygon fill="#888888" points="586,296 588,316 552,329 530,328 521,318 509,317 510,334 504,339 467,334 456,342 449,334 450,315 427,326 399,329 379,320 363,361 344,378 324,383 319,401 277,445 251,446 254,521 213,522 213,445 220,440 255,443 247,418 275,390 276,379 285,378 295,365 310,365 314,343 327,337 330,325 372,317 374,285 426,282 447,291 451,271 491,273 496,268 510,273 514,289 533,280 563,280" stroke="black" stroke-width="0.5" /><polygon fill="#888888" points="496,209 497,210 497,212 499,214 499,248 496,251 479,251 476,253 469,253 468,251 464,251 461,249 461,214 463,213 464,211 491,211 492,209" stroke="black" stroke-width="0.5" /><polygon fill="#888888" points="512,244 512,218 514,216 520,215 537,204 541,204 544,207 566,207 569,204 577,204 579,207 601,207 604,204 609,204 611,206 615,206 616,211 625,217 630,217 632,219 632,223 647,223 649,225 648,229 632,229 632,244 630,246 626,246 618,253 616,253 616,259 614,261 603,260 601,256 578,256 576,260 568,260 566,256 544,256 542,260 537,260 530,255 527,255 526,252 518,246 514,246" stroke="black" stroke-width="0.5" /></svg>